<svg width="1468" height="490" viewBox="0 0 1468 490" fill="none" xmlns="http://www.w3.org/2000/svg">
<path d="M9.28466 217V198.431C9.28466 187.672 11.0532 178.756 14.5902 171.682C18.1272 164.461 23.2117 158.566 29.8436 153.997C36.6228 149.281 44.8759 145.449 54.6027 142.502L69.4139 137.859C74.8668 136.091 79.4354 133.954 83.1198 131.448C86.8042 128.796 89.6044 125.627 91.5202 121.943C93.5835 118.258 94.6151 114.058 94.6151 109.342V108.458C94.6151 101.089 92.1098 95.2678 87.099 90.9939C82.0882 86.5726 75.2352 84.362 66.5401 84.362C57.9923 84.362 51.0656 86.72 45.7601 91.436C40.602 96.0046 38.0229 102.637 38.0229 111.332V115.311H9.72679V111.774C9.72679 100.573 12.2322 91.0676 17.2429 83.2566C22.2537 75.4457 29.033 69.477 37.5808 65.3505C46.2759 61.224 55.929 59.1607 66.5401 59.1607C77.1511 59.1607 86.7305 61.224 95.2783 65.3505C103.826 69.3296 110.532 75.0036 115.395 82.3724C120.406 89.5938 122.911 98.1416 122.911 108.016V110.226C122.911 120.101 120.848 128.501 116.721 135.428C112.742 142.207 107.289 147.807 100.363 152.228C93.4361 156.502 85.5515 160.039 76.709 162.839L62.5609 167.261C56.2238 169.177 51.2867 171.314 47.7497 173.672C44.2127 175.882 41.7073 178.388 40.2335 181.188C38.9072 183.84 38.244 187.083 38.244 190.915V191.799H121.585V217H9.28466ZM202.881 220.095C184.606 220.095 169.942 215.084 158.889 205.063C147.836 194.894 142.31 179.567 142.31 159.081V120.174C142.31 100.279 147.836 85.1725 158.889 74.8562C169.942 64.3926 184.606 59.1607 202.881 59.1607C221.303 59.1607 235.967 64.3926 246.873 74.8562C257.926 85.1725 263.452 100.279 263.452 120.174V159.081C263.452 179.567 257.926 194.894 246.873 205.063C235.967 215.084 221.303 220.095 202.881 220.095ZM202.881 194.894C213.934 194.894 222.04 191.872 227.198 185.83C232.503 179.788 235.156 171.166 235.156 159.966V118.848C235.156 107.5 232.209 98.9521 226.314 93.2045C220.566 87.3095 212.755 84.362 202.881 84.362C192.712 84.362 184.754 87.3832 179.006 93.4256C173.406 99.468 170.606 107.942 170.606 118.848V159.966C170.606 171.608 173.258 180.377 178.564 186.272C184.017 192.02 192.122 194.894 202.881 194.894ZM346.227 220.095C327.952 220.095 313.288 215.084 302.235 205.063C291.182 194.894 285.655 179.567 285.655 159.081V120.174C285.655 100.279 291.182 85.1725 302.235 74.8562C313.288 64.3926 327.952 59.1607 346.227 59.1607C364.649 59.1607 379.313 64.3926 390.218 74.8562C401.271 85.1725 406.798 100.279 406.798 120.174V159.081C406.798 179.567 401.271 194.894 390.218 205.063C379.313 215.084 364.649 220.095 346.227 220.095ZM346.227 194.894C357.28 194.894 365.386 191.872 370.544 185.83C375.849 179.788 378.502 171.166 378.502 159.966V118.848C378.502 107.5 375.554 98.9521 369.659 93.2045C363.912 87.3095 356.101 84.362 346.227 84.362C336.058 84.362 328.1 87.3832 322.352 93.4256C316.752 99.468 313.951 107.942 313.951 118.848V159.966C313.951 171.608 316.604 180.377 321.91 186.272C327.363 192.02 335.468 194.894 346.227 194.894ZM641.823 185.83V152.228H608.664V127.027H641.823V93.4256H667.909V127.027H701.068V152.228H667.909V185.83H641.823Z" fill="black"/>
<path d="M331.687 428.095C322.992 428.095 314.813 425.958 307.149 421.684C299.633 417.263 293.591 410.852 289.022 402.452C284.453 394.051 282.169 383.882 282.169 371.945V368.408C282.169 356.47 284.453 346.301 289.022 337.901C293.591 329.501 299.633 323.163 307.149 318.89C314.665 314.468 322.845 312.258 331.687 312.258C338.319 312.258 343.846 313.068 348.267 314.689C352.836 316.163 356.52 318.079 359.32 320.437C362.12 322.795 364.257 325.3 365.731 327.953H369.71V270.256H397.564V425H370.152V411.736H366.173C363.668 415.863 359.762 419.621 354.457 423.01C349.299 426.4 341.709 428.095 331.687 428.095ZM340.088 403.778C348.635 403.778 355.783 401.051 361.531 395.599C367.278 389.998 370.152 381.893 370.152 371.282V369.071C370.152 358.46 367.278 350.428 361.531 344.975C355.93 339.375 348.783 336.575 340.088 336.575C331.54 336.575 324.392 339.375 318.644 344.975C312.897 350.428 310.023 358.46 310.023 369.071V371.282C310.023 381.893 312.897 389.998 318.644 395.599C324.392 401.051 331.54 403.778 340.088 403.778ZM605.676 425L590.202 315.353H617.835L627.561 406.21H631.541L645.689 315.353H690.343L704.492 406.21H708.471L718.197 315.353H745.83L730.356 425H684.154L670.006 334.143H666.027L651.878 425H605.676ZM770.187 425V315.353H797.599V329.722H801.578C803.347 325.89 806.663 322.279 811.526 318.89C816.389 315.353 823.758 313.584 833.632 313.584C842.18 313.584 849.623 315.574 855.96 319.553C862.444 323.385 867.455 328.764 870.992 335.69C874.529 342.47 876.297 350.428 876.297 359.565V425H848.443V361.776C848.443 353.523 846.38 347.333 842.254 343.207C838.275 339.08 832.527 337.017 825.011 337.017C816.463 337.017 809.831 339.891 805.115 345.638C800.399 351.239 798.041 359.123 798.041 369.292V425H770.187ZM906.409 425V270.256H934.263V425H906.409ZM1017.3 428.095C1006.39 428.095 996.593 425.884 987.898 421.463C979.203 417.042 972.35 410.631 967.339 402.23C962.329 393.83 959.823 383.735 959.823 371.945V368.408C959.823 356.618 962.329 346.522 967.339 338.122C972.35 329.722 979.203 323.311 987.898 318.89C996.593 314.468 1006.39 312.258 1017.3 312.258C1028.21 312.258 1038.01 314.468 1046.7 318.89C1055.4 323.311 1062.25 329.722 1067.26 338.122C1072.27 346.522 1074.78 356.618 1074.78 368.408V371.945C1074.78 383.735 1072.27 393.83 1067.26 402.23C1062.25 410.631 1055.4 417.042 1046.7 421.463C1038.01 425.884 1028.21 428.095 1017.3 428.095ZM1017.3 403.336C1025.85 403.336 1032.92 400.609 1038.52 395.156C1044.12 389.556 1046.92 381.598 1046.92 371.282V369.071C1046.92 358.755 1044.12 350.87 1038.52 345.417C1033.07 339.817 1025.99 337.017 1017.3 337.017C1008.75 337.017 1001.68 339.817 996.078 345.417C990.477 350.87 987.677 358.755 987.677 369.071V371.282C987.677 381.598 990.477 389.556 996.078 395.156C1001.68 400.609 1008.75 403.336 1017.3 403.336ZM1134.53 428.095C1126.72 428.095 1119.72 426.769 1113.53 424.116C1107.34 421.316 1102.4 417.336 1098.72 412.178C1095.18 406.873 1093.41 400.462 1093.41 392.946C1093.41 385.43 1095.18 379.166 1098.72 374.155C1102.4 368.997 1107.41 365.166 1113.75 362.66C1120.24 360.007 1127.6 358.681 1135.86 358.681H1165.92V352.491C1165.92 347.333 1164.3 343.133 1161.06 339.891C1157.82 336.501 1152.66 334.806 1145.58 334.806C1138.66 334.806 1133.5 336.427 1130.11 339.67C1126.72 342.764 1124.51 346.817 1123.48 351.828L1097.83 343.207C1099.6 337.606 1102.4 332.522 1106.23 327.953C1110.21 323.237 1115.45 319.479 1121.93 316.679C1128.56 313.731 1136.59 312.258 1146.03 312.258C1160.47 312.258 1171.89 315.868 1180.29 323.09C1188.69 330.311 1192.89 340.775 1192.89 354.481V395.378C1192.89 399.799 1194.95 402.009 1199.08 402.009H1207.92V425H1189.35C1183.9 425 1179.41 423.674 1175.87 421.021C1172.33 418.368 1170.56 414.831 1170.56 410.41V410.189H1166.36C1165.77 411.957 1164.45 414.315 1162.38 417.263C1160.32 420.063 1157.08 422.568 1152.66 424.779C1148.24 426.99 1142.19 428.095 1134.53 428.095ZM1139.39 405.546C1147.2 405.546 1153.54 403.409 1158.41 399.136C1163.42 394.714 1165.92 388.893 1165.92 381.672V379.461H1137.85C1132.69 379.461 1128.64 380.566 1125.69 382.777C1122.74 384.988 1121.27 388.082 1121.27 392.062C1121.27 396.041 1122.81 399.283 1125.91 401.788C1129 404.294 1133.5 405.546 1139.39 405.546ZM1270.34 428.095C1261.65 428.095 1253.47 425.958 1245.8 421.684C1238.29 417.263 1232.25 410.852 1227.68 402.452C1223.11 394.051 1220.82 383.882 1220.82 371.945V368.408C1220.82 356.47 1223.11 346.301 1227.68 337.901C1232.25 329.501 1238.29 323.163 1245.8 318.89C1253.32 314.468 1261.5 312.258 1270.34 312.258C1276.97 312.258 1282.5 313.068 1286.92 314.689C1291.49 316.163 1295.18 318.079 1297.98 320.437C1300.78 322.795 1302.91 325.3 1304.39 327.953H1308.37V270.256H1336.22V425H1308.81V411.736H1304.83C1302.32 415.863 1298.42 419.621 1293.11 423.01C1287.95 426.4 1280.36 428.095 1270.34 428.095ZM1278.74 403.778C1287.29 403.778 1294.44 401.051 1300.19 395.599C1305.93 389.998 1308.81 381.893 1308.81 371.282V369.071C1308.81 358.46 1305.93 350.428 1300.19 344.975C1294.59 339.375 1287.44 336.575 1278.74 336.575C1270.2 336.575 1263.05 339.375 1257.3 344.975C1251.55 350.428 1248.68 358.46 1248.68 369.071V371.282C1248.68 381.893 1251.55 389.998 1257.3 395.599C1263.05 401.051 1270.2 403.778 1278.74 403.778ZM1412.64 428.095C1398.35 428.095 1386.63 425 1377.49 418.81C1368.35 412.62 1362.83 403.778 1360.91 392.283L1386.55 385.651C1387.59 390.809 1389.28 394.862 1391.64 397.809C1394.14 400.757 1397.17 402.894 1400.7 404.22C1404.39 405.399 1408.37 405.989 1412.64 405.989C1419.12 405.989 1423.91 404.883 1427.01 402.673C1430.1 400.315 1431.65 397.441 1431.65 394.051C1431.65 390.661 1430.18 388.082 1427.23 386.314C1424.28 384.398 1419.57 382.851 1413.08 381.672L1406.89 380.566C1399.23 379.093 1392.23 377.103 1385.89 374.598C1379.55 371.945 1374.47 368.334 1370.64 363.765C1366.81 359.197 1364.89 353.302 1364.89 346.08C1364.89 335.175 1368.87 326.848 1376.83 321.1C1384.79 315.205 1395.25 312.258 1408.22 312.258C1420.45 312.258 1430.62 314.984 1438.73 320.437C1446.83 325.89 1452.14 333.038 1454.64 341.88L1428.78 349.838C1427.6 344.238 1425.17 340.259 1421.48 337.901C1417.95 335.543 1413.52 334.364 1408.22 334.364C1402.91 334.364 1398.86 335.322 1396.06 337.238C1393.26 339.006 1391.86 341.512 1391.86 344.754C1391.86 348.291 1393.33 350.944 1396.28 352.712C1399.23 354.333 1403.21 355.586 1408.22 356.47L1414.41 357.576C1422.66 359.049 1430.1 361.039 1436.74 363.544C1443.52 365.902 1448.82 369.366 1452.65 373.934C1456.63 378.356 1458.62 384.398 1458.62 392.062C1458.62 403.557 1454.42 412.473 1446.02 418.81C1437.77 425 1426.64 428.095 1412.64 428.095Z" fill="black"/>
<rect x="450.638" y="69.638" width="97.7239" height="337.724" rx="48.862" stroke="#A325E8" stroke-width="35.2761"/>
</svg>
