<svg width="497" height="113" viewBox="0 0 497 113" fill="none" xmlns="http://www.w3.org/2000/svg">
<path d="M442.878 15.4078L449.685 36.3582C450.689 39.4483 453.569 41.5405 456.818 41.5405L478.846 41.5405C481.268 41.5405 482.275 44.6396 480.316 46.0631L462.494 59.0111C459.866 60.921 458.766 64.3062 459.77 67.3964L466.577 88.3467C467.325 90.65 464.689 92.5653 462.73 91.1418L444.908 78.1938C442.28 76.284 438.72 76.284 436.092 78.1938L418.27 91.1418C416.311 92.5653 413.675 90.65 414.423 88.3467L421.23 67.3964C422.234 64.3062 421.134 60.921 418.506 59.0111L400.684 46.0631C398.725 44.6396 399.732 41.5405 402.154 41.5405L424.182 41.5405C427.431 41.5405 430.311 39.4483 431.315 36.3582L438.122 15.4078C438.871 13.1045 442.129 13.1045 442.878 15.4078Z" fill="#FF6654" stroke="#FF6654" stroke-width="5"/>
<path d="M346.878 15.4078L353.685 36.3582C354.689 39.4483 357.569 41.5405 360.818 41.5405L382.846 41.5405C385.268 41.5405 386.275 44.6396 384.316 46.0631L366.494 59.0111C363.866 60.921 362.766 64.3062 363.77 67.3964L370.577 88.3467C371.325 90.65 368.689 92.5653 366.73 91.1418L348.908 78.1938C346.28 76.284 342.72 76.284 340.092 78.1938L322.27 91.1418C320.311 92.5653 317.675 90.65 318.423 88.3467L325.23 67.3964C326.234 64.3062 325.134 60.921 322.506 59.0111L304.684 46.0631C302.725 44.6396 303.732 41.5405 306.154 41.5405L328.182 41.5405C331.431 41.5405 334.311 39.4483 335.315 36.3582L342.122 15.4078C342.871 13.1045 346.129 13.1045 346.878 15.4078Z" fill="#FF6654" stroke="#FF6654" stroke-width="5"/>
<path d="M250.878 15.4078L257.685 36.3582C258.689 39.4483 261.569 41.5405 264.818 41.5405L286.846 41.5405C289.268 41.5405 290.275 44.6396 288.316 46.0631L270.494 59.0111C267.866 60.921 266.766 64.3062 267.77 67.3964L274.577 88.3467C275.325 90.65 272.689 92.5653 270.73 91.1418L252.908 78.1938C250.28 76.284 246.72 76.284 244.092 78.1938L226.27 91.1418C224.311 92.5653 221.675 90.65 222.423 88.3467L229.23 67.3964C230.234 64.3062 229.134 60.921 226.506 59.0111L208.684 46.0631C206.725 44.6396 207.732 41.5405 210.154 41.5405L232.182 41.5405C235.431 41.5405 238.311 39.4483 239.315 36.3582L246.122 15.4078C246.871 13.1045 250.129 13.1045 250.878 15.4078Z" fill="#FF6654" stroke="#FF6654" stroke-width="5"/>
<path d="M154.878 15.4078L161.685 36.3582C162.689 39.4483 165.569 41.5405 168.818 41.5405L190.846 41.5405C193.268 41.5405 194.275 44.6396 192.316 46.0631L174.494 59.0111C171.866 60.921 170.766 64.3062 171.77 67.3964L178.577 88.3467C179.325 90.65 176.689 92.5653 174.73 91.1418L156.908 78.1938C154.28 76.284 150.72 76.284 148.092 78.1938L130.27 91.1418C128.311 92.5653 125.675 90.65 126.423 88.3467L133.23 67.3964C134.234 64.3062 133.134 60.921 130.506 59.0111L112.684 46.0631C110.725 44.6396 111.732 41.5405 114.154 41.5405L136.182 41.5405C139.431 41.5405 142.311 39.4483 143.315 36.3582L150.122 15.4078C150.871 13.1045 154.129 13.1045 154.878 15.4078Z" fill="#FF6654" stroke="#FF6654" stroke-width="5"/>
<path d="M58.8776 15.4078L65.6848 36.3582C66.6889 39.4483 69.5686 41.5405 72.8178 41.5405L94.8463 41.5405C97.2681 41.5405 98.275 44.6396 96.3157 46.0631L78.4943 59.0111C75.8656 60.921 74.7657 64.3062 75.7698 67.3964L82.5769 88.3467C83.3253 90.65 80.6891 92.5653 78.7298 91.1418L60.9084 78.1938C58.2797 76.284 54.7203 76.284 52.0916 78.1938L34.2702 91.1418C32.3109 92.5653 29.6747 90.65 30.4231 88.3467L37.2302 67.3964C38.2343 64.3062 37.1344 60.921 34.5057 59.0111L16.6843 46.0631C14.725 44.6396 15.7319 41.5405 18.1537 41.5405L40.1822 41.5405C43.4314 41.5405 46.3111 39.4483 47.3152 36.3582L54.1224 15.4078C54.8707 13.1045 58.1293 13.1045 58.8776 15.4078Z" fill="#FF6654" stroke="#FF6654" stroke-width="5"/>
</svg>
