<svg width="197" height="92" viewBox="0 0 197 92" fill="none" xmlns="http://www.w3.org/2000/svg">
<path d="M194.164 63.092C194.162 63.1033 194.141 63.2179 193.878 63.4088C193.612 63.6026 193.176 63.813 192.527 64.0141C191.233 64.4151 189.311 64.7124 186.784 64.8878C181.746 65.2373 174.528 65.0887 165.634 64.4678C147.859 63.2268 123.525 60.1092 96.8513 55.4059C70.1777 50.7026 46.2449 45.3095 29.1173 40.3962C20.5474 37.9378 13.7135 35.6087 9.09908 33.5571C6.78428 32.528 5.08027 31.5914 4.001 30.7718C3.45986 30.3609 3.12276 30.0143 2.9385 29.7409C2.75705 29.4718 2.7764 29.3568 2.77838 29.3456C2.78037 29.3343 2.80151 29.2196 3.06408 29.0288C3.3307 28.835 3.76603 28.6245 4.41508 28.4235C5.70955 28.0225 7.63116 27.7251 10.1583 27.5498C15.1962 27.2002 22.4146 27.3488 31.3084 27.9698C49.0835 29.2108 73.4175 32.3284 100.091 37.0317C126.765 41.735 150.697 47.1281 167.825 52.0413C176.395 54.4997 183.229 56.8289 187.843 58.8804C190.158 59.9095 191.862 60.8462 192.941 61.6657C193.483 62.0767 193.82 62.4233 194.004 62.6966C194.185 62.9658 194.166 63.0808 194.164 63.092Z" stroke="#FF6654" stroke-width="2"/>
<path d="M38.416 71V29.24H23.728V20.6H62.608V29.24H47.92V71H38.416ZM73.1121 71L66.4881 20.6H75.9201L80.8161 64.376H82.1121L88.4481 20.6H104.864L111.2 64.376H112.496L117.392 20.6H126.824L120.2 71H103.784L97.3041 26.216H96.0081L89.5281 71H73.1121ZM133.768 71V20.6H154.504C157.672 20.6 160.456 21.248 162.856 22.544C165.304 23.792 167.2 25.568 168.544 27.872C169.936 30.176 170.632 32.912 170.632 36.08V37.088C170.632 40.208 169.912 42.944 168.472 45.296C167.08 47.6 165.16 49.4 162.712 50.696C160.312 51.944 157.576 52.568 154.504 52.568H143.272V71H133.768ZM143.272 43.928H153.568C155.824 43.928 157.648 43.304 159.04 42.056C160.432 40.808 161.128 39.104 161.128 36.944V36.224C161.128 34.064 160.432 32.36 159.04 31.112C157.648 29.864 155.824 29.24 153.568 29.24H143.272V43.928Z" fill="black"/>
</svg>
